<svg xmlns:xlink="http://www.w3.org/1999/xlink" xmlns="http://www.w3.org/2000/svg" id="Layer_1" data-name="Layer 1" viewBox="0 0 212.13 80.33" width="213" fill="none" class="svg-14" style="overflow: visible;" height="81" ><defs filter="url(#blurFilter-0)" style="opacity: 0; translate: none; rotate: none; scale: none; transform-origin: 0px 0px;" data-svg-origin="0 0" transform="matrix(1,0,0,1,0,-20)"><filter id="blurFilter-0" x="-220%" y="-220%" width="600%" height="600%" filterUnits="objectBoundingBox"><feGaussianBlur stdDeviation="10"></feGaussianBlur></filter><filter id="blurFilter-1" x="-220%" y="-220%" width="600%" height="600%" filterUnits="objectBoundingBox"><feGaussianBlur stdDeviation="10"></feGaussianBlur></filter><filter id="blurFilter-2" x="-220%" y="-220%" width="600%" height="600%" filterUnits="objectBoundingBox"><feGaussianBlur stdDeviation="10"></feGaussianBlur></filter><filter id="blurFilter-3" x="-220%" y="-220%" width="600%" height="600%" filterUnits="objectBoundingBox"><feGaussianBlur stdDeviation="10"></feGaussianBlur></filter><filter id="blurFilter-4" x="-220%" y="-220%" width="600%" height="600%" filterUnits="objectBoundingBox"><feGaussianBlur stdDeviation="10"></feGaussianBlur></filter><filter id="blurFilter-5" x="-220%" y="-220%" width="600%" height="600%" filterUnits="objectBoundingBox"><feGaussianBlur stdDeviation="10"></feGaussianBlur></filter><filter id="blurFilter-6" x="-220%" y="-220%" width="600%" height="600%" filterUnits="objectBoundingBox"><feGaussianBlur stdDeviation="10"></feGaussianBlur></filter><filter id="blurFilter-7" x="-220%" y="-220%" width="600%" height="600%" filterUnits="objectBoundingBox"><feGaussianBlur stdDeviation="10"></feGaussianBlur></filter><filter id="blurFilter-8" x="-220%" y="-220%" width="600%" height="600%" filterUnits="objectBoundingBox"><feGaussianBlur stdDeviation="10"></feGaussianBlur></filter><filter id="blurFilter-9" x="-220%" y="-220%" width="600%" height="600%" filterUnits="objectBoundingBox"><feGaussianBlur stdDeviation="10"></feGaussianBlur></filter><filter id="blurFilter-10" x="-220%" y="-220%" width="600%" height="600%" filterUnits="objectBoundingBox"><feGaussianBlur stdDeviation="10"></feGaussianBlur></filter></defs><path class="anim" d="M23.94,49.51c-.52,4.08-4.02,8.19-10.46,8.2h-.03c-7.58-.02-13.45-5.88-13.45-13.24,0-7.98,6.08-12.99,13.2-13.04,5.86-.05,10.54,3.42,10.54,6.94,0,1.22-.74,2.31-2.67,2.26-3.79-.2-3.61-7.19-8.85-7.19-3.66,0-6.04,3.57-6.04,8.08,0,7.19,3.71,11.83,9.32,11.83,3.42,0,5.62-2.06,6.75-4.31.52-.8,1.83-.62,1.69.47Z" filter="url(#blurFilter-1)" style="opacity: 0; translate: none; rotate: none; scale: none; transform-origin: 0px 0px;" data-svg-origin="0 31.429466247558594" transform="matrix(1,0,0,1,0,-20)"></path><path class="anim" d="M53.02,56.25v.2c0,.47-.42.74-1.12.74h-7.71c-.69,0-1.11-.27-1.11-.74v-.2c0-1.22,2-1.41,1.87-3.47l-.51-10.41c-.28-5.73-2.3-8.41-5.52-8.41s-5.51,2.73-5.51,6.52v12.35c0,2.06,2.15,2.2,2.15,3.42v.15c0,.47-.47.79-1.16.79h-8.14c-.69,0-1.11-.32-1.11-.79v-.15c0-1.22,2.1-1.36,2.1-3.42v-27.89c0-2.21-2.2-2.36-2.2-3.42v-.15c0-.47.32-.84.89-1.12l5.61-2.48c1.04-.47,1.68-.1,1.68.85l-.05,16.33c1.59-2.2,4.21-3.52,7.35-3.52,4.92,0,9.44,3.15,9.91,11.09l.62,10.18.08.03c.14,2.11,1.88,2.3,1.88,3.52Z" filter="url(#blurFilter-2)" style="opacity: 0; translate: none; rotate: none; scale: none; transform-origin: 0px 0px;" data-svg-origin="25.050004959106445 17.56667137145996" transform="matrix(1,0,0,1,0,-20)"></path><g class="anim" filter="url(#blurFilter-3)" style="opacity: 0; translate: none; rotate: none; scale: none; transform-origin: 0px 0px;" data-svg-origin="54.55000305175781 19.729999542236328" transform="matrix(1,0,0,1,0,-20)"><path d="M64.76,56.22v.2c0,.47-.47.8-1.16.8h-7.96l.02-.03c-.69,0-1.11-.32-1.11-.79v-.2c0-1.17,1.93-1.36,1.93-3.42v-13.76c0-2.16-1.93-2.68-1.93-3.62v-.15c0-.42.37-.62.94-.94l5.24-2.63c1.21-.57,1.88.05,1.88.89v20.23c0,2.06,2.15,2.26,2.15,3.42Z"></path><path d="M63.8,23.67c0,2.26-1.68,3.95-4.26,3.95s-4.35-1.64-4.35-3.95,1.73-3.94,4.35-3.94,4.26,1.69,4.26,3.94Z"></path></g><path d="M76.73,56.27v.15c0,.47-.47.8-1.16.8h-7.97l.03-.03c-.69,0-1.11-.32-1.11-.79v-.15c0-1.22,1.93-1.36,1.93-3.42v-27.69c0-2.21-1.93-2.63-1.93-3.57v-.15c0-.47.37-.7.89-.94l5.29-2.63c1.21-.57,1.88.05,1.88.84v34.16c0,2.06,2.15,2.21,2.15,3.42Z" filter="url(#blurFilter-4)" style="opacity: 0; translate: none; rotate: none; scale: none; transform-origin: 0px 0px;" data-svg-origin="66.5199966430664 17.628475189208984" transform="matrix(1,0,0,1,0,-20)"></path><path class="anim" d="M103.43,52.83l.05.05V18.77c0-1.05-.56-1.37-1.83-.95l-5.56,1.79c-.57.2-.94.57-.94,1.04v.1c0,1.16,2.4,1.21,2.4,3.52v9.87c-1.68-1.64-4.06-2.68-6.87-2.68-6.88,0-12.32,5.35-12.32,13.09,0,8.2,5.81,13.19,12.22,13.19,2.89,0,5.61-1.17,7.34-3.37l.15,1.83c.05.57.42.99,1.04.99h5.44c.57,0,.89-.27.89-.74v-.15c0-1.12-2.01-1.41-2.01-3.47ZM97.5,48.96c0,4.56-2.99,6.77-5.56,6.77-4.75-.1-7.79-6.2-7.64-13.34.09-5.55,2.67-8.92,6.55-8.92,3.66,0,6.65,3.72,6.65,7.09v8.4Z" filter="url(#blurFilter-5)" style="opacity: 0; translate: none; rotate: none; scale: none; transform-origin: 0px 0px;" data-svg-origin="78.36000061035156 17.640987396240234" transform="matrix(1,0,0,1,0,-20)"></path><path class="anim" d="M117.71,56.37v.15c0,.42-.42.69-1.03.69h-6.49c-.62,0-.99-.27-.99-.69v-.15c0-1.05,1.83-1,1.83-2.84v-29.64c0-2.06-1.83-2.36-1.83-3.16v-.1c0-.42.28-.57.75-.84l4.08-2.02c1.04-.52,1.63.05,1.63.75v35.01c0,1.84,2.05,1.79,2.05,2.84Z" filter="url(#blurFilter-6)" style="opacity: 0; translate: none; rotate: none; scale: none; transform-origin: 0px 0px;" data-svg-origin="109.20000457763672 17.568283081054688" transform="matrix(1,0,0,1,0,-20)"></path><path class="anim" d="M141.2,49.77v.03c-1.09,2.51-3.62,4.58-7.6,4.58-4.63,0-7.97-3.16-9.13-8.11,2.57.19,5.49.34,8.86-.28,4.92-.99,8.24-3.96,8.24-7.59,0-4.53-3.99-7.07-9.23-7.02-7.3.05-12.55,4.96-12.55,12.97s5.3,13.39,12.6,13.39c6.45,0,9.7-4.38,10.39-7.54.1-1-1.11-1.17-1.58-.43ZM124.05,42.46c0-5.13,2.99-9.28,7.5-9.28v-.03c3.26,0,5.51,2.17,5.56,5.23.05,3.38-1.73,5.02-4.67,5.65-2.77.59-5.94.47-8.29.32-.05-.62-.1-1.27-.1-1.89Z" filter="url(#blurFilter-7)" style="opacity: 0; translate: none; rotate: none; scale: none; transform-origin: 0px 0px;" data-svg-origin="119.78999328613281 31.3792724609375" transform="matrix(1,0,0,1,0,-20)"></path><path class="anim" d="M165.39,50.55c0,3.95-4.08,7.11-10.59,7.11v.03c-6.97,0-10.64-3.54-10.64-6.03,0-1.26.85-1.94,2.06-1.94,3.24,0,1.58,6.45,8.61,6.45,3.36,0,5.99-1.64,5.99-4.65,0-7.77-16.06-2.54-16.06-12.92,0-4.06,4.08-7.22,9.85-7.22,6.5,0,10.21,3.39,10.21,6.23,0,1.04-.84,1.84-1.88,1.84-2.99,0-1.68-6.45-8.14-6.45-3.04,0-5.39,1.94-5.39,4.58,0,7.59,15.98,2.41,15.98,12.97Z" filter="url(#blurFilter-8)" style="opacity: 0; translate: none; rotate: none; scale: none; transform-origin: 0px 0px;" data-svg-origin="144.16000366210938 31.3799991607666" transform="matrix(1,0,0,1,0,-20)"></path><path class="anim" d="M188.28,50.55c0,3.95-4.08,7.11-10.59,7.11v.03c-6.98,0-10.64-3.54-10.64-6.03,0-1.26.84-1.94,2.06-1.94,3.24,0,1.58,6.45,8.61,6.45,3.36,0,5.98-1.64,5.98-4.65,0-7.77-16.05-2.54-16.05-12.92,0-4.06,4.08-7.22,9.84-7.22,6.51,0,10.22,3.39,10.22,6.23,0,1.04-.84,1.84-1.88,1.84-2.99,0-1.68-6.45-8.14-6.45-3.04,0-5.39,1.94-5.39,4.58,0,7.59,15.98,2.41,15.98,12.97Z" filter="url(#blurFilter-9)" style="opacity: 0; translate: none; rotate: none; scale: none; transform-origin: 0px 0px;" data-svg-origin="167.0500030517578 31.3799991607666" transform="matrix(1,0,0,1,0,-20)"></path><path d="M209.66,55.33c-8.69,24.77-41.5,33.53-60.53,15.27l.29-.4c6.6,4.09,14.08,6.26,21.47,6.14,14.62-.08,28.75-9.18,34.49-22.77,13.59-33.99-18.88-60.1-50.42-44.9-6.6,3.34-12.26,8.63-16.44,15.19l-.44-.23c5.18-15.42,22.48-25.85,38.62-23.23,24.17,3.84,42.22,31.45,32.96,54.93Z" filter="url(#blurFilter-10)" style="opacity: 0; translate: none; rotate: none; scale: none; transform-origin: 0px 0px;" data-svg-origin="138.0800018310547 -0.003063201904296875" transform="matrix(1,0,0,1,0,-20)"></path></svg>