<svg xmlns:xlink="http://www.w3.org/1999/xlink" xmlns="http://www.w3.org/2000/svg" width="18" viewBox="0 0 18 18" fill="none" class="svg-2" height="18" ><path fill-rule="evenodd" clip-rule="evenodd" d="M9.04771 0.460938C10.8733 0.460929 12.3072 0.460921 13.4267 0.611429C14.5739 0.765671 15.4841 1.0882 16.1993 1.80336C16.9145 2.51853 17.237 3.42875 17.3912 4.57595C17.5417 5.69547 17.5417 7.12935 17.5417 8.95494V9.05027C17.5417 10.8759 17.5417 12.3098 17.3912 13.4293C17.237 14.5764 16.9145 15.4867 16.1993 16.2019C15.4841 16.917 14.5739 17.2395 13.4267 17.3938C12.3072 17.5443 10.8733 17.5443 9.04771 17.5443H8.95237C7.12679 17.5443 5.69291 17.5443 4.57339 17.3938C3.42618 17.2395 2.51597 16.917 1.8008 16.2019C1.08564 15.4867 0.763108 14.5764 0.608866 13.4293C0.458358 12.3098 0.458366 10.8759 0.458374 9.05027V8.95494C0.458366 7.12937 0.458358 5.69547 0.608866 4.57595C0.763108 3.42875 1.08564 2.51853 1.8008 1.80336C2.51597 1.0882 3.42618 0.765671 4.57339 0.611429C5.6929 0.460921 7.12679 0.460929 8.95237 0.460938H9.04771ZM12.75 9.0026C12.75 11.0737 11.0711 12.7526 9.00004 12.7526C6.92897 12.7526 5.25004 11.0737 5.25004 9.0026C5.25004 6.93154 6.92897 5.2526 9.00004 5.2526C11.0711 5.2526 12.75 6.93154 12.75 9.0026ZM13.5936 5.2526C14.0518 5.2526 14.4232 4.87951 14.4232 4.41927C14.4232 3.95904 14.0518 3.58594 13.5936 3.58594H13.5861C13.128 3.58594 12.7565 3.95904 12.7565 4.41927C12.7565 4.8795 13.128 5.2526 13.5861 5.2526H13.5936Z" fill="currentColor"></path></svg>