<svg xmlns:xlink="http://www.w3.org/1999/xlink" xmlns="http://www.w3.org/2000/svg" width="56" viewBox="0 0 56 56" fill="none" class="svg-angebote flower-svg" style="translate: none; rotate: none; scale: none; transform: translate(-26.6641px, -26.6641px);" height="56" ><path fill-rule="evenodd" clip-rule="evenodd" d="M32.8575 27.5922C34.0512 27.5311 36.3379 26.5754 38.8605 24.7399C43.3494 21.4738 48.8585 23.3079 52.7353 26.5751C53.5102 27.1539 54.4323 27.5533 55.7809 27.5922H56C55.9476 27.5922 55.8957 27.5927 55.8445 27.5937C55.8957 27.5948 55.9476 27.5953 56 27.5953H55.7809C54.4323 27.6342 53.5102 28.0336 52.7353 28.6124C48.8585 31.8795 43.3494 33.7137 38.8605 30.4475C36.3379 28.6121 34.0512 27.6563 32.8575 27.5953H32.7393C32.7662 27.5953 32.7938 27.5948 32.8221 27.5937C32.7938 27.5927 32.7662 27.5922 32.7393 27.5922H32.8575Z" fill="black" fill-opacity="0.1"></path><path fill-rule="evenodd" clip-rule="evenodd" d="M23.1425 27.5563C21.9488 27.6173 19.6621 28.5731 17.1395 30.4085C12.6506 33.6747 7.14145 31.8405 3.26466 28.5734C2.48977 27.9945 1.56774 27.5952 0.219174 27.5563L-1.50794e-06 27.5563C0.0524468 27.5563 0.104271 27.5557 0.155487 27.5547C0.104271 27.5537 0.0524468 27.5531 -1.50766e-06 27.5531L0.219174 27.5531C1.56774 27.5142 2.48977 27.1149 3.26466 26.5361C7.14146 23.2689 12.6506 21.4348 17.1395 24.7009C19.6621 26.5363 21.9488 27.4921 23.1425 27.5531L23.2607 27.5531C23.2338 27.5531 23.2062 27.5537 23.1779 27.5547C23.2062 27.5557 23.2338 27.5563 23.2607 27.5563L23.1425 27.5563Z" fill="black" fill-opacity="0.1"></path><path d="M28.0469 24.939C24.7823 21.1303 20.2117 10.8602 28.0469 0.25C31.3116 4.33083 35.8821 14.9818 28.0469 24.939Z" fill="black" fill-opacity="0.1"></path><path d="M28.0469 55.7515C24.7823 51.9428 20.2117 41.6727 28.0469 31.0625C31.3116 35.1433 35.8821 45.7943 28.0469 55.7515Z" fill="black" fill-opacity="0.1"></path><path d="M34.5762 22.083C34.7122 18.3423 37.5552 10.4526 47.8389 8.82031C47.2948 12.9011 43.8805 21.2669 34.5762 22.083Z" fill="black" fill-opacity="0.1"></path><path d="M8.25391 46.7783C8.38993 43.0376 11.2329 35.148 21.5166 33.5156C20.9725 37.5965 17.5582 45.9622 8.25391 46.7783Z" fill="black" fill-opacity="0.1"></path><path d="M48.043 46.7783C47.9069 43.0376 45.064 35.148 34.7803 33.5156C35.3244 37.5965 38.7387 45.9622 48.043 46.7783Z" fill="black" fill-opacity="0.1"></path><path d="M21.5176 21.8799C21.3816 18.1391 18.5386 10.2495 8.25487 8.61719C8.79898 12.698 12.2133 21.0637 21.5176 21.8799Z" fill="black" fill-opacity="0.1"></path></svg>