<svg xmlns:xlink="http://www.w3.org/1999/xlink" xmlns="http://www.w3.org/2000/svg" width="38" viewBox="0 0 34 34" fill="none" class="bg-card1-svg flower-svg" style="translate: none; rotate: none; scale: none; transform: translate(0px, 0px);" height="38" ><path fill-rule="evenodd" clip-rule="evenodd" d="M19.9232 16.7437C20.6404 16.7193 22.0436 16.1385 23.5934 15.0109C26.3188 13.0279 29.6636 14.1415 32.0173 16.1251C32.4966 16.4831 33.0685 16.728 33.9125 16.7437H33.9994C33.9787 16.7437 33.9582 16.7438 33.9378 16.7441C33.9582 16.7444 33.9788 16.7445 33.9994 16.7445H33.9125C33.0685 16.7602 32.4966 17.0051 32.0173 17.3631C29.6636 19.3467 26.3188 20.4603 23.5934 18.4773C22.0436 17.3496 20.6404 16.7689 19.9231 16.7445H19.877C19.8876 16.7445 19.8984 16.7444 19.9094 16.7441C19.8984 16.7438 19.8876 16.7437 19.877 16.7437H19.9232Z" fill="currentColor"></path><path fill-rule="evenodd" clip-rule="evenodd" d="M14.079 16.725C13.3623 16.7483 11.9579 17.3291 10.4066 18.4578C7.68122 20.4409 4.33642 19.3273 1.98268 17.3437C1.5027 16.9851 0.929749 16.74 0.0836852 16.725L0.000573401 16.725C0.0203183 16.725 0.0399182 16.7249 0.0593741 16.7246C0.0399182 16.7244 0.0203192 16.7243 0.000574355 16.7243L0.0836842 16.7243C0.929748 16.7092 1.5027 16.4641 1.98267 16.1056C4.33642 14.122 7.68122 13.0084 10.4066 14.9914C11.9579 16.1201 13.3623 16.7009 14.079 16.7243L14.123 16.7243C14.1129 16.7243 14.1025 16.7244 14.0921 16.7246C14.1025 16.7249 14.1129 16.725 14.123 16.725L14.079 16.725Z" fill="currentColor"></path><path d="M17.028 15.1381C15.0459 12.8256 12.2709 6.59027 17.028 0.148438C19.0101 2.62606 21.785 9.09267 17.028 15.1381Z" fill="currentColor"></path><path d="M17.028 33.8412C15.0459 31.5288 12.2709 25.2934 17.028 18.8516C19.0101 21.3292 21.785 27.7958 17.028 33.8412Z" fill="currentColor"></path><path d="M20.9922 13.4038C21.0748 11.1327 22.8009 6.34261 29.0445 5.35156C28.7141 7.82919 26.6412 12.9083 20.9922 13.4038Z" fill="currentColor"></path><path d="M5.01172 28.396C5.09431 26.1249 6.82039 21.3348 13.064 20.3438C12.7337 22.8214 10.6607 27.9005 5.01172 28.396Z" fill="currentColor"></path><path d="M29.168 28.396C29.0854 26.1249 27.3593 21.3348 21.1157 20.3438C21.446 22.8214 23.519 27.9005 29.168 28.396Z" fill="currentColor"></path><path d="M13.0635 13.2867C12.9809 11.0155 11.2548 6.22543 5.01119 5.23438C5.34154 7.712 7.41449 12.7911 13.0635 13.2867Z" fill="currentColor"></path></svg>