<svg xmlns:xlink="http://www.w3.org/1999/xlink" xmlns="http://www.w3.org/2000/svg" width="20" viewBox="0 0 20 19" fill="none" class="svg-2" height="19" ><path d="M13.5116 4.87934C12.7353 4.87927 12.0451 4.87921 11.4878 4.95416C10.8821 5.03562 10.2705 5.22346 9.7706 5.72349C9.27069 6.22351 9.08293 6.83532 9.00154 7.44123C8.92663 7.99867 8.92663 8.68919 8.92672 9.46561V10.2002H8.26183C7.64981 10.2002 7.15367 10.6965 7.15367 11.3087C7.15367 11.9208 7.64981 12.4172 8.26183 12.4172H8.92672V17.734C8.92672 18.1545 8.92672 18.3647 8.7949 18.4949C8.66307 18.6252 8.45447 18.6225 8.03727 18.6172C6.9828 18.6039 6.08607 18.5669 5.32568 18.4646C4.10524 18.3005 3.13693 17.9573 2.37611 17.1962C1.6153 16.4352 1.27218 15.4666 1.1081 14.2457C0.94798 13.0543 0.947989 11.5285 0.947998 9.58573V9.48431C0.947989 7.54163 0.94798 6.01571 1.1081 4.82437C1.27218 3.60355 1.6153 2.63493 2.37611 1.87388C3.13693 1.11282 4.10524 0.769595 5.32568 0.605463C6.51664 0.445295 8.04209 0.445304 9.98417 0.445313H10.0856C12.0277 0.445304 13.5531 0.445295 14.7441 0.605463C15.9645 0.769595 16.9328 1.11282 17.6937 1.87388C18.4545 2.63493 18.7976 3.60354 18.9617 4.82437C19.1218 6.01571 19.1218 7.54164 19.1218 9.48431V9.58582C19.1218 11.5285 19.1218 13.0543 18.9617 14.2457C18.7976 15.4666 18.4545 16.4352 17.6937 17.1962C16.9328 17.9573 15.9645 18.3005 14.7441 18.4646C13.9837 18.5669 13.0869 18.6039 12.0325 18.6172C11.6153 18.6225 11.4067 18.6252 11.2749 18.4949C11.143 18.3647 11.143 18.1545 11.143 17.734V12.4172H12.6945C13.3065 12.4172 13.8026 11.9208 13.8026 11.3087C13.8026 10.6965 13.3065 10.2002 12.6945 10.2002H11.143V9.53502C11.143 8.66765 11.1454 8.12855 11.1981 7.73663C11.2456 7.38287 11.3158 7.313 11.3367 7.29222L11.3378 7.29116L11.3389 7.29008C11.3596 7.2692 11.4295 7.19896 11.7831 7.15139C12.1749 7.0987 12.7139 7.09635 13.581 7.09635H14.4675C15.0796 7.09635 15.5757 6.60006 15.5757 5.98784C15.5757 5.37563 15.0796 4.87934 14.4675 4.87934H13.5116Z" fill="currentColor"></path></svg>