<svg xmlns:xlink="http://www.w3.org/1999/xlink" xmlns="http://www.w3.org/2000/svg" width="130" viewBox="0 0 127 48" fill="none" class="svg-preloader" height="49" ><path d="M8.02666 34.5667C3.50515 34.5667 -0.00012207 31.0761 -0.00012207 26.7019C-0.00012207 21.9595 3.62297 18.9844 7.86465 18.955C11.3552 18.9255 14.1388 20.9874 14.1388 23.0788C14.1388 23.8005 13.697 24.4485 12.5482 24.4191C10.2948 24.3013 10.3979 20.1479 7.27553 20.1479C5.09578 20.1479 3.68189 22.2688 3.68189 24.9493C3.68189 29.2204 5.89109 31.9746 9.23436 31.9746C11.2668 31.9746 12.5776 30.7521 13.2551 29.4119C13.5644 28.9406 14.345 29.0437 14.2566 29.6917C13.9473 32.1218 11.8559 34.5667 8.01193 34.5667H8.02666ZM30.4575 31.6064C30.5458 32.8582 31.5768 32.9761 31.5768 33.6977V33.8156C31.5768 34.0954 31.3264 34.2574 30.914 34.2574H26.3189C25.9065 34.2574 25.6561 34.0954 25.6561 33.8156V33.6977C25.6561 32.9761 26.8491 32.8582 26.7754 31.6358L26.4662 25.45C26.3041 22.0479 25.0964 20.4572 23.1818 20.4572C21.1788 20.4572 19.8975 22.0773 19.8975 24.3307V31.6653C19.8975 32.8877 21.1788 32.9761 21.1788 33.6977V33.7861C21.1788 34.0659 20.899 34.2574 20.4866 34.2574H15.6411C15.2287 34.2574 14.9783 34.0659 14.9783 33.7861V33.6977C14.9783 32.9761 16.2302 32.8877 16.2302 31.6653V15.0962C16.2302 13.7854 14.9194 13.6971 14.9194 13.0638V12.9754C14.9194 12.6956 15.1108 12.4746 15.4496 12.3126L18.7929 10.8398C19.4114 10.56 19.7944 10.7809 19.7944 11.3406L19.7649 21.0464C20.7075 19.7356 22.2687 18.955 24.1391 18.955C27.07 18.955 29.7652 20.8254 30.0451 25.5384L30.4133 31.5916L30.4575 31.6064ZM35.465 16.6869C33.9038 16.6869 32.8729 15.7148 32.8729 14.3451C32.8729 12.9754 33.9038 12.0033 35.465 12.0033C37.0262 12.0033 37.9982 13.0049 37.9982 14.3451C37.9982 15.6854 36.9967 16.6869 35.465 16.6869ZM33.1527 34.2574C32.7403 34.2574 32.4899 34.0659 32.4899 33.7861V33.6683C32.4899 32.9761 33.6387 32.8582 33.6387 31.6358V23.4618C33.6387 22.1804 32.4899 21.8711 32.4899 21.3115V21.2231C32.4899 20.9727 32.7108 20.8549 33.0496 20.6634L36.1719 19.1023C36.8936 18.7635 37.2913 19.1317 37.2913 19.6325V31.6505C37.2913 32.873 38.5726 32.9908 38.5726 33.683V33.8008C38.5726 34.0807 38.2928 34.2721 37.8804 34.2721H33.138L33.1527 34.2574ZM40.2811 34.2574C39.8687 34.2574 39.6183 34.0659 39.6183 33.7861V33.6977C39.6183 32.9761 40.7671 32.8877 40.7671 31.6653V15.2141C40.7671 13.9033 39.6183 13.6529 39.6183 13.0932V13.0049C39.6183 12.725 39.8392 12.5925 40.1485 12.4452L43.3003 10.884C44.022 10.5453 44.4196 10.9135 44.4196 11.3848V31.68C44.4196 32.9024 45.701 32.9908 45.701 33.7125V33.8008C45.701 34.0807 45.4211 34.2721 45.0088 34.2721H40.2663L40.2811 34.2574ZM61.6072 31.6653C61.6072 32.8877 62.8002 33.0644 62.8002 33.7272V33.8156C62.8002 34.0954 62.6088 34.2574 62.27 34.2574H59.0298C58.6616 34.2574 58.4407 34.007 58.4113 33.6683L58.3229 32.5784C57.2919 33.8892 55.6719 34.5814 53.9487 34.5814C50.1341 34.5814 46.673 31.6211 46.673 26.7461C46.673 22.151 49.9132 18.9697 54.0076 18.9697C55.6866 18.9697 57.1005 19.5883 58.102 20.5603V14.6986C58.102 13.3289 56.6734 13.2994 56.6734 12.6072V12.5483C56.6734 12.2684 56.8943 12.0475 57.233 11.9297L60.5468 10.8693C61.298 10.6189 61.6367 10.8104 61.6367 11.429V31.6947L61.6072 31.6653ZM54.7587 33.3885C56.2904 33.3885 58.0725 32.0777 58.0725 29.3677V24.3749C58.0725 22.3719 56.2904 20.1627 54.1107 20.1627C51.7984 20.1627 50.2667 22.1657 50.2077 25.4648C50.1194 29.7064 51.9309 33.3295 54.7587 33.3885Z" fill="currentColor"></path><path d="M65.8933 34.2531C65.5251 34.2531 65.3042 34.0911 65.3042 33.8407V33.7524C65.3042 33.1338 66.3941 33.1632 66.3941 32.0734V14.5323C66.3941 13.3098 65.3042 13.1331 65.3042 12.6618V12.6029C65.3042 12.3525 65.4662 12.2641 65.746 12.1021L68.1762 10.9092C68.7947 10.5999 69.1482 10.9386 69.1482 11.351V32.0734C69.1482 33.1632 70.3706 33.1338 70.3706 33.7524V33.8407C70.3706 34.0911 70.1203 34.2531 69.7521 34.2531H65.908H65.8933ZM84.3475 29.8494C84.6274 29.4076 85.3491 29.5107 85.2901 30.0998C84.8778 31.9703 82.9484 34.5624 79.1044 34.5624C74.7596 34.5624 71.6078 31.3811 71.6078 26.6387C71.6078 21.8963 74.7301 18.9949 79.0749 18.9654C82.1973 18.9359 84.5685 20.4382 84.5685 23.1187C84.5685 25.269 82.5949 27.0216 79.664 27.6108C77.661 27.979 75.9231 27.8906 74.3914 27.7728C75.0836 30.7036 77.0719 32.5741 79.826 32.5741C82.1973 32.5741 83.6995 31.3517 84.3475 29.8641V29.8494ZM78.6036 20.0258C75.9231 20.0258 74.141 22.4854 74.141 25.5194C74.141 25.8876 74.1705 26.2705 74.1999 26.6387C75.5991 26.7271 77.4843 26.8007 79.1338 26.4472C80.8865 26.079 81.9469 25.107 81.9174 23.104C81.888 21.2924 80.5477 20.0111 78.6036 20.0111V20.0258ZM92.448 34.5329C88.2947 34.5329 86.1149 32.4416 86.1149 30.9688C86.1149 30.2176 86.6157 29.82 87.3373 29.82C89.2667 29.82 88.2799 33.6345 92.4627 33.6345C94.4657 33.6345 96.0269 32.6625 96.0269 30.8804C96.0269 26.2852 86.4684 29.3781 86.4684 23.2365C86.4684 20.8359 88.8985 18.9654 92.3301 18.9654C96.2036 18.9654 98.4128 20.9684 98.4128 22.6474C98.4128 23.266 97.9121 23.7373 97.2935 23.7373C95.5114 23.7373 96.292 19.9227 92.448 19.9227C90.6364 19.9227 89.2373 21.0715 89.2373 22.6327C89.2373 27.1247 98.7516 24.0613 98.7516 30.306C98.7516 32.6477 96.3214 34.5182 92.448 34.5182V34.5329ZM106.071 34.5329C101.918 34.5329 99.7383 32.4416 99.7383 30.9688C99.7383 30.2176 100.239 29.82 100.961 29.82C102.89 29.82 101.903 33.6345 106.086 33.6345C108.089 33.6345 109.65 32.6625 109.65 30.8804C109.65 26.2852 100.092 29.3781 100.092 23.2365C100.092 20.8359 102.522 18.9654 105.954 18.9654C109.827 18.9654 112.036 20.9684 112.036 22.6474C112.036 23.266 111.535 23.7373 110.917 23.7373C109.135 23.7373 109.915 19.9227 106.071 19.9227C104.26 19.9227 102.861 21.0715 102.861 22.6327C102.861 27.1247 112.375 24.0613 112.375 30.306C112.375 32.6477 109.945 34.5182 106.071 34.5182V34.5329Z" fill="currentColor"></path><path d="M82.6942 14.0845C85.7871 4.89422 96.1409 -1.32101 105.803 0.24016C120.265 2.523 131.061 18.9595 125.523 32.9364C120.324 47.6792 100.692 52.8929 89.3071 42.0236L89.4838 41.7879C93.431 44.2181 97.9083 45.5141 102.327 45.4405C111.075 45.3963 119.529 39.9764 122.961 31.8907C131.091 11.6544 111.664 -3.88369 92.7976 5.15932C88.8505 7.14761 85.4631 10.2994 82.9593 14.2023L82.6942 14.0698V14.0845Z" fill="currentColor"></path></svg>