<svg xmlns:xlink="http://www.w3.org/1999/xlink" xmlns="http://www.w3.org/2000/svg" width="38" viewBox="0 0 36 36" fill="none" class="svg-6 flower-svg" style="translate: none; rotate: none; scale: none; transform: translate(0px, 0px);" height="38" ><path d="M19.4124 1.20031C18.6506 0.349896 17.4813 0.349896 16.7195 1.20031C15.8513 2.17475 16.0462 3.66297 17.2864 5.39924C17.6053 5.84216 17.9597 6.1965 18.066 6.1965C18.1723 6.1965 18.5266 5.84216 18.8455 5.39924C20.0857 3.66297 20.2806 2.17475 19.4124 1.20031Z" fill="currentColor"></path><path d="M10.0848 6.5485C10.4569 10.0742 12.7424 12.3951 16.1617 12.714L17.2956 12.8203V12.023C17.2956 10.3754 16.3921 8.28476 15.2405 7.2749C14.0711 6.26503 12.0691 5.5032 10.5277 5.5032H9.97852L10.0848 6.5485Z" fill="currentColor"></path><path d="M23.6736 5.75123C21.2287 6.42448 19.705 7.89499 18.9964 10.2691C18.8369 10.8006 18.7129 11.5978 18.7129 12.023V12.8203L19.8999 12.714C21.2287 12.59 22.9118 11.8813 23.8685 11.0309C24.9847 10.0565 25.9769 7.7001 25.9769 6.03471C25.9769 5.52091 25.9414 5.5032 25.2327 5.52091C24.8075 5.52091 24.1166 5.62722 23.6736 5.75123Z" fill="currentColor"></path><path d="M5.51426 10.1116C5.47883 10.1824 5.51426 10.7848 5.62057 11.458C5.93947 13.8498 7.25053 15.6924 9.27027 16.6137C10.1915 17.0389 12.6011 17.5173 12.7959 17.3224C12.9908 17.1275 12.4948 14.6117 12.0695 13.6904C11.4849 12.4148 10.1207 11.1214 8.84506 10.6431C7.81747 10.2533 5.63828 9.89895 5.51426 10.1116Z" fill="currentColor"></path><path d="M29.343 10.1111C25.711 10.554 23.709 12.6269 23.2306 16.4361C23.0889 17.5168 23.0535 17.4814 24.7897 17.1979C27.0398 16.8436 28.7938 15.6034 29.6973 13.7608C30.2111 12.7155 30.7072 10.306 30.4414 10.1111C30.3706 10.0402 29.8745 10.058 29.343 10.1111Z" fill="currentColor"></path><path d="M16.8883 14.9691C15.6127 15.4297 14.8154 16.599 14.8154 17.9987C14.8154 21.3118 19.1561 22.4634 20.7861 19.5932C21.4947 18.3353 21.2113 16.4927 20.166 15.5537C19.723 15.1462 18.6246 14.7387 18.0045 14.7387C17.7564 14.7387 17.2604 14.845 16.8883 14.9691Z" fill="currentColor"></path><path d="M1.13781 16.6491C0.287396 17.4109 0.287396 18.5802 1.13781 19.3421C2.11225 20.2102 3.60047 20.0153 5.33674 18.7751C5.77966 18.4562 6.134 18.1019 6.134 17.9956C6.134 17.8893 5.77966 17.5349 5.33674 17.216C3.60047 15.9758 2.11225 15.7809 1.13781 16.6491Z" fill="currentColor"></path><path d="M34.8622 19.3431C35.7126 18.5813 35.7126 17.412 34.8622 16.6501C33.8878 15.782 32.3995 15.9769 30.6633 17.2171C30.2203 17.536 29.866 17.8903 29.866 17.9966C29.866 18.1029 30.2203 18.4573 30.6633 18.7762C32.3995 20.0164 33.8878 20.2112 34.8622 19.3431Z" fill="currentColor"></path><path d="M11.0236 18.8118C9.78337 19.0067 8.0471 19.9279 7.28527 20.7606C6.91322 21.1681 6.43486 21.9122 6.20454 22.4083C5.81476 23.2765 5.3364 25.686 5.53129 25.8631C5.70846 26.058 7.33842 25.8454 8.34829 25.5088C10.9704 24.6584 12.3878 22.7449 12.7775 19.5382L12.9016 18.6169L12.3878 18.6346C12.122 18.6523 11.5019 18.7232 11.0236 18.8118Z" fill="currentColor"></path><path d="M23.1426 18.8309C23.1426 19.5396 23.5678 21.4707 23.8513 22.1263C24.8434 24.3763 26.9694 25.7582 29.6093 25.9L30.4951 25.9531L30.442 25.085C30.2117 21.5062 27.9084 19.1321 24.2587 18.7069C23.3729 18.6183 23.1426 18.636 23.1426 18.8309Z" fill="currentColor"></path><path d="M14.993 23.47C13.0795 23.9838 11.7862 24.9759 10.9712 26.535C10.422 27.5803 10.0322 28.9977 10.0322 29.9898V30.5391L11.0952 30.4328C13.1681 30.2556 15.0461 29.228 16.0914 27.7398C16.7115 26.8539 17.2962 25.0291 17.2962 24.0015V23.2219L16.5521 23.2397C16.1269 23.2397 15.4359 23.346 14.993 23.47Z" fill="currentColor"></path><path d="M18.7129 23.9645C18.7129 25.6122 19.6165 27.7028 20.7681 28.7127C21.9374 29.7225 23.9394 30.4844 25.4808 30.4844H26.03L25.9237 29.4391C25.5516 25.9134 23.2662 23.5925 19.8468 23.2736L18.7129 23.1673V23.9645Z" fill="currentColor"></path><path d="M16.7194 34.7919C17.4812 35.6423 18.6505 35.6423 19.4124 34.7919C20.2805 33.8174 20.0856 32.3292 18.8454 30.5929C18.5265 30.15 18.1722 29.7957 18.0659 29.7957C17.9596 29.7957 17.6052 30.15 17.2863 30.5929C16.0461 32.3292 15.8513 33.8174 16.7194 34.7919Z" fill="currentColor"></path></svg>