<svg xmlns:xlink="http://www.w3.org/1999/xlink" xmlns="http://www.w3.org/2000/svg" width="44" viewBox="0 0 39 41" fill="none" class="svg-5" height="47" ><path d="M36.6273 12.1127C40.6273 17.9267 39.0481 25.5479 35.7388 31.2948C32.8552 36.4952 27.0916 40.0459 21.1133 40.1163C20.2684 40.0996 19.4268 40.0258 18.5986 39.9554V39.8414C20.2449 39.6335 21.8677 39.4927 23.4402 38.9998C29.5828 37.263 35.3565 32.8002 37.4487 26.594C38.7396 21.8027 37.9047 16.6727 36.6273 12.1094V12.1127Z" fill="currentColor"></path><path d="M0.0568314 19.9451C-0.580224 12.8067 4.22786 7.09336 9.99489 3.53256C15.658 -0.15565 23.7787 -0.0349444 29.1736 4.08244L29.1166 4.17968C21.7838 0.816697 12.3486 1.24252 6.25303 6.83854C2.79281 10.4027 1.16665 15.3348 0.0568314 19.9418V19.9451Z" fill="currentColor"></path></svg>